<svg xmlns="http://www.w3.org/2000/svg" xmlns:xlink="http://www.w3.org/1999/xlink" width="100" zoomAndPan="magnify" viewBox="0 0 75 74.999997" height="100" preserveAspectRatio="xMidYMid meet" version="1.0"><defs><g/></defs><g fill="#0cc0df" fill-opacity="1"><g transform="translate(7.954668, 50.28148)"><g><path d="M 13.203125 -36.65625 C 12.097656 -36.488281 10.976562 -36.195312 9.84375 -35.78125 C 8.71875 -35.375 7.6875 -34.851562 6.75 -34.21875 C 5.820312 -33.582031 5.066406 -32.859375 4.484375 -32.046875 C 3.910156 -31.234375 3.625 -30.347656 3.625 -29.390625 C 3.625 -28.679688 3.789062 -28.117188 4.125 -27.703125 C 4.46875 -27.285156 4.828125 -26.925781 5.203125 -26.625 C 5.578125 -26.332031 5.929688 -26.054688 6.265625 -25.796875 C 6.609375 -25.535156 6.78125 -25.25 6.78125 -24.9375 C 6.78125 -24.5 6.460938 -24.28125 5.828125 -24.28125 C 4.921875 -24.28125 4.078125 -24.722656 3.296875 -25.609375 C 2.523438 -26.503906 2.140625 -27.785156 2.140625 -29.453125 C 2.140625 -30.765625 2.40625 -32.015625 2.9375 -33.203125 C 3.476562 -34.390625 4.242188 -35.421875 5.234375 -36.296875 C 6.222656 -37.171875 7.398438 -37.863281 8.765625 -38.375 C 10.140625 -38.894531 11.679688 -39.15625 13.390625 -39.15625 C 14.296875 -39.15625 14.859375 -38.863281 15.078125 -38.28125 C 15.296875 -37.707031 15.40625 -36.867188 15.40625 -35.765625 C 15.40625 -33.773438 15.503906 -31.191406 15.703125 -28.015625 C 15.898438 -24.847656 16.019531 -21.5 16.0625 -17.96875 C 17.019531 -18.800781 17.90625 -19.679688 18.71875 -20.609375 C 19.53125 -21.546875 20.234375 -22.550781 20.828125 -23.625 C 21.140625 -24.21875 21.40625 -24.75 21.625 -25.21875 C 21.84375 -25.695312 22.113281 -25.9375 22.4375 -25.9375 C 22.789062 -25.9375 22.96875 -25.660156 22.96875 -25.109375 C 22.96875 -24.160156 22.78125 -23.269531 22.40625 -22.4375 C 22.03125 -21.601562 21.53125 -20.796875 20.90625 -20.015625 C 20.289062 -19.242188 19.566406 -18.5 18.734375 -17.78125 C 17.910156 -17.070312 17.019531 -16.363281 16.0625 -15.65625 C 16.019531 -12.15625 15.820312 -9.054688 15.46875 -6.359375 C 15.113281 -3.671875 14.554688 -1.40625 13.796875 0.4375 C 13.046875 2.289062 12.078125 3.703125 10.890625 4.671875 C 9.703125 5.640625 8.273438 6.125 6.609375 6.125 C 5.015625 6.125 3.75 5.488281 2.8125 4.21875 C 1.882812 2.957031 1.421875 1.394531 1.421875 -0.46875 C 1.421875 -2.21875 1.769531 -3.773438 2.46875 -5.140625 C 3.164062 -6.515625 4.066406 -7.785156 5.171875 -8.953125 C 6.285156 -10.117188 7.515625 -11.226562 8.859375 -12.28125 C 10.210938 -13.332031 11.5625 -14.375 12.90625 -15.40625 C 12.945312 -15.96875 12.96875 -16.546875 12.96875 -17.140625 C 12.96875 -17.734375 12.96875 -18.347656 12.96875 -18.984375 C 12.96875 -20.890625 12.914062 -22.722656 12.8125 -24.484375 C 12.71875 -26.242188 12.671875 -28 12.671875 -29.75 C 12.671875 -30.894531 12.707031 -32.039062 12.78125 -33.1875 C 12.863281 -34.34375 13.003906 -35.5 13.203125 -36.65625 Z M 2.796875 -0.46875 C 2.796875 1.070312 3.113281 2.328125 3.75 3.296875 C 4.382812 4.273438 5.335938 4.765625 6.609375 4.765625 C 8.785156 4.765625 10.335938 3.316406 11.265625 0.421875 C 12.203125 -2.472656 12.75 -7.078125 12.90625 -13.390625 C 11.632812 -12.515625 10.394531 -11.609375 9.1875 -10.671875 C 7.976562 -9.742188 6.894531 -8.753906 5.9375 -7.703125 C 4.988281 -6.648438 4.226562 -5.53125 3.65625 -4.34375 C 3.082031 -3.15625 2.796875 -1.863281 2.796875 -0.46875 Z M 2.796875 -0.46875 "/></g></g></g><g fill="#0cc0df" fill-opacity="1"><g transform="translate(24.077826, 50.28148)"><g><path d="M 19.15625 -1.25 C 18.644531 -0.9375 18.109375 -0.78125 17.546875 -0.78125 C 16.992188 -0.78125 16.53125 -0.9375 16.15625 -1.25 C 15.78125 -1.5625 15.53125 -1.976562 15.40625 -2.5 C 14.613281 -5.550781 13.878906 -8.660156 13.203125 -11.828125 C 12.535156 -15.003906 11.941406 -18.019531 11.421875 -20.875 C 10.910156 -23.738281 10.472656 -26.335938 10.109375 -28.671875 C 9.753906 -31.015625 9.5 -32.878906 9.34375 -34.265625 C 9.21875 -32.242188 9.066406 -29.84375 8.890625 -27.0625 C 8.710938 -24.289062 8.472656 -21.40625 8.171875 -18.40625 C 7.878906 -15.414062 7.503906 -12.441406 7.046875 -9.484375 C 6.585938 -6.535156 6.019531 -3.898438 5.34375 -1.578125 C 4.675781 0.742188 3.882812 2.628906 2.96875 4.078125 C 2.0625 5.523438 1.015625 6.25 -0.171875 6.25 C -0.890625 6.25 -1.476562 6.109375 -1.9375 5.828125 C -2.394531 5.554688 -2.757812 5.210938 -3.03125 4.796875 C -3.3125 4.378906 -3.5 3.921875 -3.59375 3.421875 C -3.695312 2.921875 -3.75 2.472656 -3.75 2.078125 C -3.75 1.722656 -3.707031 1.425781 -3.625 1.1875 C -3.550781 0.945312 -3.414062 0.828125 -3.21875 0.828125 C -2.976562 0.828125 -2.796875 1.046875 -2.671875 1.484375 C -2.554688 1.921875 -2.414062 2.394531 -2.25 2.90625 C -2.09375 3.425781 -1.863281 3.90625 -1.5625 4.34375 C -1.269531 4.78125 -0.804688 5 -0.171875 5 C 0.660156 5 1.410156 4.300781 2.078125 2.90625 C 2.753906 1.519531 3.359375 -0.316406 3.890625 -2.609375 C 4.429688 -4.910156 4.910156 -7.519531 5.328125 -10.4375 C 5.742188 -13.351562 6.109375 -16.335938 6.421875 -19.390625 C 6.742188 -22.453125 7.019531 -25.457031 7.25 -28.40625 C 7.488281 -31.363281 7.691406 -33.992188 7.859375 -36.296875 C 8.128906 -36.578125 8.441406 -36.804688 8.796875 -36.984375 C 9.160156 -37.160156 9.519531 -37.25 9.875 -37.25 C 10.195312 -37.25 10.554688 -37.148438 10.953125 -36.953125 C 11.347656 -36.753906 11.601562 -36.4375 11.71875 -36 C 12 -34.769531 12.363281 -32.953125 12.8125 -30.546875 C 13.269531 -28.148438 13.785156 -25.460938 14.359375 -22.484375 C 14.941406 -19.515625 15.566406 -16.382812 16.234375 -13.09375 C 16.910156 -9.800781 17.585938 -6.664062 18.265625 -3.6875 C 18.941406 -6.03125 19.675781 -8.597656 20.46875 -11.390625 C 21.257812 -14.191406 22.082031 -17.085938 22.9375 -20.078125 C 23.789062 -23.078125 24.679688 -26.113281 25.609375 -29.1875 C 26.546875 -32.257812 27.46875 -35.242188 28.375 -38.140625 C 28.9375 -38.578125 29.632812 -38.796875 30.46875 -38.796875 C 30.976562 -38.796875 31.429688 -38.664062 31.828125 -38.40625 C 32.222656 -38.144531 32.460938 -37.738281 32.546875 -37.1875 C 32.703125 -35.914062 32.878906 -34.117188 33.078125 -31.796875 C 33.273438 -29.484375 33.515625 -26.96875 33.796875 -24.25 C 34.078125 -21.53125 34.40625 -18.75 34.78125 -15.90625 C 35.15625 -13.070312 35.585938 -10.515625 36.078125 -8.234375 C 36.578125 -5.953125 37.144531 -4.078125 37.78125 -2.609375 C 38.414062 -1.148438 39.128906 -0.421875 39.921875 -0.421875 C 40.878906 -0.421875 41.582031 -0.84375 42.03125 -1.6875 C 42.488281 -2.539062 42.835938 -3.472656 43.078125 -4.484375 C 43.316406 -5.503906 43.515625 -6.4375 43.671875 -7.28125 C 43.828125 -8.132812 44.066406 -8.5625 44.390625 -8.5625 C 44.628906 -8.5625 44.75 -8.1875 44.75 -7.4375 C 44.75 -6.800781 44.664062 -6.003906 44.5 -5.046875 C 44.34375 -4.097656 44.078125 -3.175781 43.703125 -2.28125 C 43.328125 -1.394531 42.820312 -0.632812 42.1875 0 C 41.550781 0.632812 40.757812 0.953125 39.8125 0.953125 C 38.613281 0.953125 37.566406 0.535156 36.671875 -0.296875 C 35.785156 -1.128906 34.992188 -2.257812 34.296875 -3.6875 C 33.609375 -5.113281 33.023438 -6.757812 32.546875 -8.625 C 32.066406 -10.488281 31.660156 -12.460938 31.328125 -14.546875 C 30.992188 -16.628906 30.722656 -18.738281 30.515625 -20.875 C 30.316406 -23.019531 30.164062 -25.082031 30.0625 -27.0625 C 29.96875 -29.050781 29.910156 -30.878906 29.890625 -32.546875 C 29.878906 -34.210938 29.875 -35.601562 29.875 -36.71875 C 29 -34.019531 28.082031 -31.125 27.125 -28.03125 C 26.175781 -24.9375 25.242188 -21.820312 24.328125 -18.6875 C 23.421875 -15.550781 22.53125 -12.484375 21.65625 -9.484375 C 20.78125 -6.492188 19.945312 -3.75 19.15625 -1.25 Z M 19.15625 -1.25 "/></g></g></g></svg>